<?xml version="1.0" encoding="UTF-8" standalone="no"?>
<!-- Created with Inkscape (http://www.inkscape.org/) -->

<svg
   xmlns:dc="http://purl.org/dc/elements/1.1/"
   xmlns:cc="http://creativecommons.org/ns#"
   xmlns:rdf="http://www.w3.org/1999/02/22-rdf-syntax-ns#"
   xmlns:svg="http://www.w3.org/2000/svg"
   xmlns="http://www.w3.org/2000/svg"
   xmlns:sodipodi="http://sodipodi.sourceforge.net/DTD/sodipodi-0.dtd"
   xmlns:inkscape="http://www.inkscape.org/namespaces/inkscape"
   width="210mm"
   height="297mm"
   viewBox="0 0 210 297"
   version="1.1"
   id="svg3763"
   inkscape:version="0.92.3 (unknown)"
   sodipodi:docname="controllers.svg">
  <defs
     id="defs3757">
    <clipPath
       clipPathUnits="userSpaceOnUse"
       id="clipPath91">
      <path
         style="fill:none;stroke:#000000;stroke-width:0.99999994px;stroke-linecap:butt;stroke-linejoin:miter;stroke-opacity:1"
         d="m -378.04959,471.72893 22.98097,0.75761 41.16372,-63.89216 c 0,0 -103.03558,11.11166 -102.27794,9.84899 0.75761,-1.2627 38.13325,53.28556 38.13325,53.28556 z"
         id="path93"
         inkscape:connector-curvature="0" />
    </clipPath>
    <clipPath
       clipPathUnits="userSpaceOnUse"
       id="clipPath95">
      <path
         inkscape:connector-curvature="0"
         id="path97"
         d="m -28.415192,130.10483 -3.259555,-3.57147 -20.90928,0.0636 c 0,0 12.746291,22.11896 12.359965,22.06849 -0.386281,-0.0509 11.80887,-18.56058 11.80887,-18.56058 z"
         style="fill:none;stroke:#000000;stroke-width:0.26458332px;stroke-linecap:butt;stroke-linejoin:miter;stroke-opacity:1"
         sodipodi:nodetypes="ccccc" />
    </clipPath>
    <clipPath
       clipPathUnits="userSpaceOnUse"
       id="clipPath131">
      <path
         inkscape:connector-curvature="0"
         id="path133"
         d="m -24.741462,130.98558 9.543123,13.66072 c 0,0 17.4804237,-18.68737 17.4701307,-18.2979 -0.01073,0.38947 -24.3989597,0.12409 -24.3989597,0.12409 -1.831646,1.84306 -1.901408,3.71254 -2.614294,4.51309 z"
         style="fill:none;stroke:#000000;stroke-width:0.26458332px;stroke-linecap:butt;stroke-linejoin:miter;stroke-opacity:1"
         sodipodi:nodetypes="ccccc" />
    </clipPath>
    <clipPath
       clipPathUnits="userSpaceOnUse"
       id="clipPath95-7">
      <path
         inkscape:connector-curvature="0"
         id="path97-5"
         d="m -28.415192,130.10483 -3.259555,-3.57147 -20.90928,0.0636 c 0,0 12.746291,22.11896 12.359965,22.06849 -0.386281,-0.0509 11.80887,-18.56058 11.80887,-18.56058 z"
         style="fill:none;stroke:#000000;stroke-width:0.26458332px;stroke-linecap:butt;stroke-linejoin:miter;stroke-opacity:1"
         sodipodi:nodetypes="ccccc" />
    </clipPath>
    <clipPath
       clipPathUnits="userSpaceOnUse"
       id="clipPath131-3">
      <path
         inkscape:connector-curvature="0"
         id="path133-5"
         d="m -24.741462,130.98558 9.543123,13.66072 c 0,0 17.4804237,-18.68737 17.4701307,-18.2979 -0.01073,0.38947 -24.3989597,0.12409 -24.3989597,0.12409 -1.831646,1.84306 -1.901408,3.71254 -2.614294,4.51309 z"
         style="fill:none;stroke:#000000;stroke-width:0.26458332px;stroke-linecap:butt;stroke-linejoin:miter;stroke-opacity:1"
         sodipodi:nodetypes="ccccc" />
    </clipPath>
    <clipPath
       clipPathUnits="userSpaceOnUse"
       id="clipPath91-6">
      <path
         style="fill:none;stroke:#000000;stroke-width:0.99999994px;stroke-linecap:butt;stroke-linejoin:miter;stroke-opacity:1"
         d="m -378.04959,471.72893 22.98097,0.75761 41.16372,-63.89216 c 0,0 -103.03558,11.11166 -102.27794,9.84899 0.75761,-1.2627 38.13325,53.28556 38.13325,53.28556 z"
         id="path93-2"
         inkscape:connector-curvature="0" />
    </clipPath>
  </defs>
  <sodipodi:namedview
     id="base"
     pagecolor="#ffffff"
     bordercolor="#666666"
     borderopacity="1.0"
     inkscape:pageopacity="0.0"
     inkscape:pageshadow="2"
     inkscape:zoom="0.12374369"
     inkscape:cx="1739.7717"
     inkscape:cy="650.01579"
     inkscape:document-units="mm"
     inkscape:current-layer="layer1"
     showgrid="false"
     inkscape:window-width="1366"
     inkscape:window-height="672"
     inkscape:window-x="0"
     inkscape:window-y="27"
     inkscape:window-maximized="1" />
  <metadata
     id="metadata3760">
    <rdf:RDF>
      <cc:Work
         rdf:about="">
        <dc:format>image/svg+xml</dc:format>
        <dc:type
           rdf:resource="http://purl.org/dc/dcmitype/StillImage" />
        <dc:title />
      </cc:Work>
    </rdf:RDF>
  </metadata>
  <g
     inkscape:label="Layer 1"
     inkscape:groupmode="layer"
     id="layer1">
    <g
       id="g7618"
       inkscape:export-filename="/home/tfccomputation/Documents/gamedu/assets/controller/left.png"
       inkscape:export-xdpi="96"
       inkscape:export-ydpi="96">
      <rect
         y="98.354988"
         x="50.258415"
         height="39.607903"
         width="39.607903"
         id="rect7470-9"
         style="fill:#ffffff;stroke:#000000;stroke-width:0.39209822" />
      <path
         sodipodi:nodetypes="cccccc"
         inkscape:connector-curvature="0"
         id="path7519"
         d="m 77.01979,107.93708 -17.752585,11.62255 17.752585,11.62306 v -5.29167 c 0,0 0.06195,-6.32109 0,-12.66227 z"
         style="fill:#000000;stroke:#000000;stroke-width:0.32698888px;stroke-linecap:butt;stroke-linejoin:miter;stroke-opacity:1" />
    </g>
    <g
       id="g7640"
       inkscape:export-filename="/home/tfccomputation/Documents/gamedu/assets/controller/right.png"
       inkscape:export-xdpi="96"
       inkscape:export-ydpi="96">
      <rect
         y="98.354988"
         x="129.47421"
         height="39.607903"
         width="39.607903"
         id="rect7470-9-7"
         style="fill:#ffffff;stroke:#000000;stroke-width:0.39209822" />
      <path
         style="fill:#000000;stroke:#000000;stroke-width:0.32698888px;stroke-linecap:butt;stroke-linejoin:miter;stroke-opacity:1"
         d="m 142.76838,107.93708 17.75269,11.62255 -17.75269,11.62306 v -5.29167 c 0,0 -0.062,-6.32109 0,-12.66227 z"
         id="path7548"
         inkscape:connector-curvature="0"
         sodipodi:nodetypes="cccccc" />
    </g>
    <g
       id="g7634"
       inkscape:export-filename="/home/tfccomputation/Documents/gamedu/assets/controller/up.png"
       inkscape:export-xdpi="96"
       inkscape:export-ydpi="96">
      <rect
         y="58.747086"
         x="89.866318"
         height="39.607903"
         width="39.607903"
         id="rect7470"
         style="fill:#ffffff;stroke:#000000;stroke-width:0.39209822" />
      <path
         sodipodi:nodetypes="cccccc"
         inkscape:connector-curvature="0"
         id="path7519-3"
         d="M 121.47058,84.363595 109.84803,66.611006 98.224964,84.363595 h 5.291666 c 0,0 6.3211,0.0619 12.66228,0 z"
         style="fill:#000000;stroke:#000000;stroke-width:0.32698888px;stroke-linecap:butt;stroke-linejoin:miter;stroke-opacity:1" />
    </g>
    <g
       id="g7622"
       inkscape:export-filename="/home/tfccomputation/Documents/gamedu/assets/controller/down.png"
       inkscape:export-xdpi="96"
       inkscape:export-ydpi="96">
      <rect
         y="137.96289"
         x="89.866318"
         height="39.607903"
         width="39.607903"
         id="rect7470-9-7-9"
         style="fill:#ffffff;stroke:#000000;stroke-width:0.39209822" />
      <path
         sodipodi:nodetypes="cccccc"
         inkscape:connector-curvature="0"
         id="path7519-3-2"
         d="M 121.47059,150.9607 109.84804,168.71329 98.224971,150.9607 h 5.291669 c 0,0 6.3211,-0.0619 12.66228,0 z"
         style="fill:#000000;stroke:#000000;stroke-width:0.32698888px;stroke-linecap:butt;stroke-linejoin:miter;stroke-opacity:1" />
    </g>
    <g
       id="g7630"
       inkscape:export-filename="/home/tfccomputation/Documents/gamedu/assets/controller/enter.png"
       inkscape:export-xdpi="96"
       inkscape:export-ydpi="96">
      <rect
         y="98.354988"
         x="89.86631"
         height="39.607903"
         width="39.607903"
         id="rect7470-4"
         style="fill:#ffffff;stroke:#000000;stroke-width:0.39209822" />
      <circle
         r="12.561667"
         cy="118.73122"
         cx="109.04595"
         id="path7595"
         style="fill:#000000;stroke:#000000;stroke-width:0.26458332" />
    </g>
    <g
       id="g4696"
       inkscape:export-xdpi="96"
       inkscape:export-ydpi="96">
      <rect
         y="97.050598"
         x="-229.99852"
         height="60.287201"
         width="60.287201"
         id="rect4643"
         style="fill:#f2f2f2;stroke:none;stroke-width:1.06500006;stroke-miterlimit:4;stroke-dasharray:none" />
      <circle
         r="20.221727"
         cy="127.2887"
         cx="-200.70535"
         id="path22"
         style="fill:#f2f2f2;stroke:#ff0000;stroke-width:1.06500006;stroke-miterlimit:4;stroke-dasharray:none" />
      <ellipse
         cy="127.2887"
         cx="-200.70535"
         id="ellipse26"
         style="fill:#ff0000;stroke:none;stroke-width:0.0539974"
         rx="4.1741304"
         ry="4.0802932" />
      <path
         inkscape:connector-curvature="0"
         clip-path="url(#clipPath91-6)"
         id="ellipse45"
         transform="matrix(0.26458333,0,0,0.26458333,-103.84896,-0.94493853)"
         d="m -366.21484,418.53125 a 67.401246,65.886019 0 0 0 -67.40235,65.88672 67.401246,65.886019 0 0 0 67.40235,65.88476 67.401246,65.886019 0 0 0 67.40039,-65.88476 67.401246,65.886019 0 0 0 -67.40039,-65.88672 z m 0,45.55859 a 20.794546,20.32707 0 0 1 20.79492,20.32813 20.794546,20.32707 0 0 1 -20.79492,20.32617 20.794546,20.32707 0 0 1 -20.79493,-20.32617 20.794546,20.32707 0 0 1 20.79493,-20.32813 z"
         style="fill:#ff0000;stroke:none;stroke-width:0.87191629" />
      <path
         transform="translate(-173.60631,0.92594147)"
         clip-path="url(#clipPath131-3)"
         inkscape:connector-curvature="0"
         style="fill:#ff0000;stroke:none;stroke-width:0.23069452"
         d="m -27.136995,108.86551 a 17.833246,17.432342 0 0 0 -17.833538,17.43252 17.833246,17.432342 0 0 0 17.833538,17.43201 17.833246,17.432342 0 0 0 17.8330195,-17.43201 17.833246,17.432342 0 0 0 -17.8330195,-17.43252 z m 0,12.05404 a 5.5018902,5.3782039 0 0 1 5.501989,5.37848 5.5018902,5.3782039 0 0 1 -5.501989,5.37797 5.5018902,5.3782039 0 0 1 -5.501992,-5.37797 5.5018902,5.3782039 0 0 1 5.501992,-5.37848 z"
         id="path81" />
      <path
         clip-path="url(#clipPath95-7)"
         inkscape:connector-curvature="0"
         style="fill:#ff0000;stroke:none;stroke-width:0.23069452"
         d="m -27.136995,108.86551 a 17.833246,17.432342 0 0 0 -17.833538,17.43252 17.833246,17.432342 0 0 0 17.833538,17.43201 17.833246,17.432342 0 0 0 17.8330195,-17.43201 17.833246,17.432342 0 0 0 -17.8330195,-17.43252 z m 0,12.05404 a 5.5018902,5.3782039 0 0 1 5.501989,5.37848 5.5018902,5.3782039 0 0 1 -5.501989,5.37797 5.5018902,5.3782039 0 0 1 -5.501992,-5.37797 5.5018902,5.3782039 0 0 1 5.501992,-5.37848 z"
         id="path81-6"
         transform="translate(-173.60631,0.92594147)" />
    </g>
  </g>
</svg>
